HIERARCHY
ROOT SpineBase
{
  OFFSET 0.000000 0.000000 0.000000
  CHANNELS 6 Xposition Yposition Zposition Zrotation Xrotation Yrotation
  JOINT SpineMid
  {
    OFFSET 0.000000 29.049811 0.000000
    CHANNELS 3 Zrotation Xrotation Yrotation
    JOINT SpineShoulder
    {
      OFFSET -0.179156 21.538353 -0.683190
      CHANNELS 3 Zrotation Xrotation Yrotation
      JOINT Neck
      {
        OFFSET -0.088894 7.099234 -0.522874
        CHANNELS 3 Zrotation Xrotation Yrotation
        JOINT Head
        {
          OFFSET -1.999247 14.565667 -3.484940
          CHANNELS 3 Zrotation Xrotation Yrotation
          End Site
          {
            OFFSET 0 0 0
          }
        }
      }
      JOINT ShoulderLeft
      {
        OFFSET -16.717311 -6.250700 2.729186
        CHANNELS 3 Zrotation Xrotation Yrotation
        JOINT ElbowLeft
        {
          OFFSET -2.108761 -26.365275 1.236684
          CHANNELS 3 Zrotation Xrotation Yrotation
          JOINT WristLeft
          {
            OFFSET 0.222335 -21.837718 -5.936475
            CHANNELS 3 Zrotation Xrotation Yrotation
            JOINT HandLeft
            {
              OFFSET 2.156484 -4.739414 -0.004613
              CHANNELS 3 Zrotation Xrotation Yrotation
              JOINT HandTipLeft
              {
                OFFSET 0.455336 -7.925147 -1.095466
                CHANNELS 3 Zrotation Xrotation Yrotation
                End Site
                {
                  OFFSET 0 0 0
                }
              }
              JOINT ThumbLeft
              {
                OFFSET -2.680953 0.712556 -1.305827
                CHANNELS 3 Zrotation Xrotation Yrotation
                End Site
                {
                  OFFSET 0 0 0
                }
              }
            }
          }
        }
      }
      JOINT ShoulderRight
      {
        OFFSET 17.216414 -3.619658 -1.932425
        CHANNELS 3 Zrotation Xrotation Yrotation
        JOINT ElbowRight
        {
          OFFSET 5.408081 -23.975161 2.751320
          CHANNELS 3 Zrotation Xrotation Yrotation
          JOINT WristRight
          {
            OFFSET -2.254908 -19.850073 -11.448645
            CHANNELS 3 Zrotation Xrotation Yrotation
            JOINT HandRight
            {
              OFFSET -3.485628 -1.559465 -2.713690
              CHANNELS 3 Zrotation Xrotation Yrotation
              JOINT HandTipRight
              {
                OFFSET -1.416224 -3.443846 -5.028987
                CHANNELS 3 Zrotation Xrotation Yrotation
                End Site
                {
                  OFFSET 0 0 0
                }
              }
              JOINT ThumbRight
              {
                OFFSET 0.600761 -0.504508 -3.732907
                CHANNELS 3 Zrotation Xrotation Yrotation
                End Site
                {
                  OFFSET 0 0 0
                }
              }
            }
          }
        }
      }
    }
  }
  JOINT HipLeft
  {
    OFFSET -7.875547 0.103646 -2.967736
    CHANNELS 3 Zrotation Xrotation Yrotation
    JOINT KneeLeft
    {
      OFFSET 2.338874 -36.307491 6.379793
      CHANNELS 3 Zrotation Xrotation Yrotation
      JOINT AnkleLeft
      {
        OFFSET 7.054138 -35.538541 9.373975
        CHANNELS 3 Zrotation Xrotation Yrotation
        JOINT FootLeft
        {
          OFFSET -3.606274 -7.503001 0.698068
          CHANNELS 3 Zrotation Xrotation Yrotation
          End Site
          {
            OFFSET 0 0 0
          }
        }
      }
    }
  }
  JOINT HipRight
  {
    OFFSET 7.289141 1.179515 -4.070335
    CHANNELS 3 Zrotation Xrotation Yrotation
    JOINT KneeRight
    {
      OFFSET 0.882460 -16.300527 -32.883567
      CHANNELS 3 Zrotation Xrotation Yrotation
      JOINT AnkleRight
      {
        OFFSET 1.479209 -29.589802 27.083718
        CHANNELS 3 Zrotation Xrotation Yrotation
        JOINT FootRight
        {
          OFFSET -1.786636 -4.413487 -13.540786
          CHANNELS 3 Zrotation Xrotation Yrotation
          End Site
          {
            OFFSET 0 0 0
          }
        }
      }
    }
  }
}
MOTION
Frames: 14
Frame Time: 0.033333
24.266955 79.379298 317.892876 -0.000000 0.000000 4.158563 0.000000 0.000000 -4.158563 -0.000000 0.000000 0.000000 -0.000000 0.000000 0.000000 0.000000 0.000000 0.000000 -0.000000 0.000000 0.000000 -0.000000 0.000000 0.000000 -0.000000 0.000000 0.000000 -0.000000 0.000000 0.000000 0.000000 0.000000 0.000000 0.000000 0.000000 0.000000 -0.000000 0.000000 0.000000 -0.000000 0.000000 0.000000 -0.000000 0.000000 0.000000 -0.000000 0.000000 0.000000 0.000000 0.000000 0.000000 0.000000 0.000000 0.000000 0.000000 0.000000 -4.158563 -0.000000 0.000000 0.000000 -0.000000 0.000000 0.000000 0.000000 0.000000 0.000000 0.000000 0.000000 -4.158563 -0.000000 0.000000 0.000000 -0.000000 0.000000 0.000000 0.000000 0.000000 0.000000
24.131503 79.396478 317.922856 -0.149241 -0.011717 3.978210 0.149694 0.001335 -3.978227 -0.000000 0.000000 0.000000 -0.811724 0.619201 -0.105075 0.000000 0.000000 0.000000 -0.000000 0.000000 0.000000 -0.700523 -2.120995 0.156670 -3.321064 2.093682 -0.045824 4.594901 -3.048022 -0.231596 0.000000 0.000000 0.000000 0.000000 0.000000 0.000000 -0.000000 0.000000 0.000000 -0.000000 0.000000 0.000000 -1.609797 0.909287 0.747977 0.914380 0.191554 -0.174500 0.000000 0.000000 0.000000 0.000000 0.000000 0.000000 0.149694 0.001335 -3.978227 -0.000000 0.000000 0.000000 3.078162 23.277980 -12.035700 0.000000 0.000000 0.000000 0.149694 0.001335 -3.978227 -0.000000 0.000000 0.000000 -0.000000 0.000000 0.000000 0.000000 0.000000 0.000000
24.033287 79.419090 317.947174 -0.260061 -0.018254 3.830748 0.260699 0.000838 -3.830792 -0.000000 0.000000 0.000000 -1.489781 1.152701 -0.184022 0.000000 0.000000 0.000000 0.842250 -0.951329 0.122615 -2.015386 -2.502500 0.160268 -6.198869 4.475072 0.673835 8.430010 -6.259241 -0.798463 0.000000 0.000000 0.000000 0.000000 0.000000 0.000000 -0.000000 0.000000 0.000000 -0.000000 0.000000 0.000000 -2.964511 1.639001 1.420950 1.725575 0.118286 -0.307596 0.000000 0.000000 0.000000 0.000000 0.000000 0.000000 0.260699 0.000838 -3.830792 -1.116890 -0.057668 -0.307172 11.589008 41.112487 -24.859466 0.000000 0.000000 0.000000 0.792425 -0.186658 -4.936314 -1.170618 0.632365 0.571117 0.619823 -0.497491 0.542846 0.000000 0.000000 0.000000
23.972307 79.447133 317.965829 -0.332402 -0.019602 3.716805 0.332974 -0.001987 -3.716856 -0.000000 0.000000 0.000000 -2.036884 1.601387 -0.240495 0.000000 0.000000 0.000000 1.055990 -1.191013 0.155812 -2.472669 -2.817565 0.191860 -8.354511 7.173097 2.076296 11.149305 -9.701062 -1.642822 0.000000 0.000000 0.000000 0.000000 0.000000 0.000000 -0.000000 0.000000 0.000000 0.557167 0.527344 -0.383015 -4.572785 1.611961 2.322777 2.351188 -0.138117 -0.369653 0.000000 0.000000 0.000000 0.000000 0.000000 0.000000 0.332974 -0.001987 -3.716856 -1.489439 -0.085477 -0.411948 21.218006 51.262405 -37.220456 0.000000 0.000000 0.000000 1.002164 -0.277854 -5.116197 -1.512761 0.867703 0.702468 0.813618 -0.662564 0.712272 0.000000 0.000000 0.000000
23.948563 79.480608 317.978820 -0.366204 -0.015753 3.636809 0.366466 -0.007508 -3.636836 -0.000000 0.000000 0.000000 -2.455389 1.966248 -0.277463 0.000000 0.000000 0.000000 1.142195 -1.286289 0.169330 -2.577060 -2.501415 0.194165 -9.625915 10.114593 3.995615 12.518275 -13.275075 -2.733861 0.000000 0.000000 0.000000 0.000000 0.000000 0.000000 -0.000000 0.000000 0.000000 0.655466 0.574265 -0.445568 -5.360497 1.871951 2.794984 2.735918 -0.527184 -0.337985 0.000000 0.000000 0.000000 0.000000 0.000000 0.000000 0.366466 -0.007508 -3.636836 -1.708911 -0.112660 -0.476117 29.955811 56.488624 -47.491548 0.000000 0.000000 0.000000 1.088610 -0.367475 -5.159169 -1.690554 1.054661 0.731110 0.929241 -0.772896 0.812827 0.000000 0.000000 0.000000
23.962056 79.519515 317.986149 -0.361398 -0.006697 3.590989 0.361108 -0.015952 -3.590960 -0.000000 0.000000 0.000000 -2.747232 2.248254 -0.297248 0.000000 0.000000 0.000000 1.102644 -1.239344 0.162821 -2.330085 -1.550171 0.164123 -9.986755 13.101835 6.197670 12.462490 -16.697689 -4.081425 0.000000 0.000000 0.000000 0.000000 0.000000 0.000000 -0.000000 0.000000 0.000000 0.709744 0.557103 -0.475090 -5.724468 1.986447 3.085837 2.852014 -1.029129 -0.195802 0.000000 0.000000 0.000000 0.000000 0.000000 0.000000 0.361108 -0.015952 -3.590960 -1.761332 -0.138956 -0.495690 36.668213 59.106334 -55.154511 0.000000 0.000000 0.000000 1.052244 -0.455813 -5.066339 -1.703031 1.195043 0.656855 0.966376 -0.828927 0.844142 0.000000 0.000000 0.000000
23.940637 79.543851 317.973339 -0.382780 0.040618 3.549884 0.379531 -0.064240 -3.549536 -0.000000 0.000000 0.000000 -2.857631 2.490155 -0.282317 0.000000 0.000000 0.000000 0.911209 -1.149207 0.143824 -2.370013 0.321060 0.282403 -8.737893 17.850945 9.440185 9.444016 -22.231810 -6.827058 0.000000 0.000000 0.000000 0.000000 0.000000 0.000000 -0.809827 0.105768 -0.068446 1.628599 0.291888 -0.448183 -6.000967 2.358332 2.961440 3.415795 -3.412189 0.219152 0.000000 0.000000 0.000000 0.000000 0.000000 0.000000 0.379531 -0.064240 -3.549536 -1.468910 -0.195415 -0.429666 42.005589 59.924786 -60.693625 0.000000 0.000000 0.000000 1.048518 -0.567950 -4.991881 -1.634117 1.248485 0.671764 0.914382 -0.815550 0.797171 0.000000 0.000000 0.000000
23.991623 79.578717 317.963100 -0.335930 0.077487 3.579106 0.330438 -0.098305 -3.578595 -0.000000 0.000000 0.000000 -2.887094 2.653728 -0.262067 0.000000 0.000000 0.000000 0.542624 -0.769978 0.090690 -1.106264 2.880396 0.109437 -8.839318 18.792434 11.233524 7.312805 -22.798253 -8.509736 0.000000 0.000000 0.000000 0.000000 0.000000 0.000000 -0.902216 0.138843 -0.071262 1.697494 0.081517 -0.409555 -5.649694 2.603719 2.327778 3.196449 -5.079628 1.369717 0.000000 0.000000 0.000000 0.000000 0.000000 0.000000 0.330438 -0.098305 -3.578595 -1.089037 -0.281775 -0.346299 41.421708 60.040230 -60.711554 0.000000 0.000000 0.000000 0.821428 -0.683981 -4.677944 -1.314354 1.252992 0.450975 0.771631 -0.715316 0.671277 0.000000 0.000000 0.000000
24.183837 79.649783 317.964670 -0.119700 0.092572 3.631938 0.113596 -0.099969 -3.631742 -0.000000 0.000000 0.000000 -2.823536 2.736195 -0.234742 0.000000 0.000000 0.000000 -0.000000 0.000000 0.000000 0.583848 5.525276 -0.128896 -6.920149 18.189072 12.005875 4.847812 -21.289182 -9.719148 0.000000 0.000000 0.000000 0.000000 0.000000 0.000000 -0.990796 0.124516 -0.084716 0.990981 -0.123033 0.086856 -3.669127 1.585268 2.641062 2.012543 -5.462960 1.141028 0.000000 0.000000 0.000000 0.000000 0.000000 0.000000 0.113596 -0.099969 -3.631742 -0.739756 -0.339451 -0.264830 46.612906 61.148972 -66.910348 0.000000 0.000000 0.000000 0.113596 -0.099969 -3.631742 -0.487037 0.795827 -0.405284 0.492701 -0.792333 0.412074 0.000000 0.000000 0.000000
24.549274 79.780779 317.954526 0.233181 0.084579 3.827516 -0.238307 -0.068824 -3.827831 -0.000000 0.000000 0.000000 -2.620297 2.614583 -0.210100 0.000000 0.000000 0.000000 -0.000000 0.000000 0.000000 2.698656 9.505206 -0.841915 -5.654731 16.328873 12.665842 2.842823 -18.836734 -10.621112 0.000000 0.000000 0.000000 0.000000 0.000000 0.000000 -1.011442 0.016701 -0.112384 1.011473 -0.014715 0.112661 -2.213496 0.272241 3.101499 0.649755 -5.261613 0.976455 0.000000 0.000000 0.000000 0.000000 0.000000 0.000000 -0.238307 -0.068824 -3.827831 -0.000000 0.000000 0.000000 41.306638 59.928163 -61.952341 0.000000 0.000000 0.000000 -0.773997 -0.897626 -2.898112 0.493157 0.854789 -0.937916 -0.000000 0.000000 0.000000 0.000000 0.000000 0.000000
24.972374 79.957075 317.936216 0.608344 0.062590 4.089332 -0.611259 -0.019046 -4.089765 -0.000000 0.000000 0.000000 -2.423068 2.204198 -0.232365 0.000000 0.000000 0.000000 -0.907269 1.523960 -0.152386 5.928991 11.202454 -1.448818 -3.180076 12.745553 12.335563 2.404299 -11.501665 -10.286977 0.000000 0.000000 0.000000 0.000000 0.000000 0.000000 -1.014935 -0.141458 -0.149914 1.014564 0.144090 0.147385 -0.717464 -1.267606 4.093748 -1.166464 -2.326123 0.052734 0.000000 0.000000 0.000000 0.000000 0.000000 0.000000 -1.754468 0.184075 -4.283402 1.155189 -0.117136 0.196464 41.223500 59.941324 -61.897326 0.000000 0.000000 0.000000 -1.921563 -1.754151 -1.745490 1.257457 1.773768 -2.384021 -0.000000 0.000000 0.000000 0.000000 0.000000 0.000000
25.421543 80.125236 317.933554 0.964584 -0.004823 4.431902 -0.961328 0.079342 -4.431196 -0.000000 0.000000 0.000000 -2.279684 1.610408 -0.294196 0.000000 0.000000 0.000000 -1.261729 2.675033 -0.243771 8.823695 12.350336 -2.183473 -1.352441 9.983123 12.410804 1.089224 -7.181622 -10.448677 0.000000 0.000000 0.000000 0.000000 0.000000 0.000000 -1.036207 -0.441033 -0.222744 0.980731 -1.256039 0.444230 1.535861 0.887726 -1.055488 -3.818776 -1.395710 5.210127 0.000000 0.000000 0.000000 0.000000 0.000000 0.000000 -2.712486 0.315312 -4.729078 1.764646 -0.090669 0.305310 41.209123 59.940771 -61.884511 0.000000 0.000000 0.000000 -3.215793 -3.193110 -0.407882 2.234799 3.285966 -4.148709 -0.000000 0.000000 0.000000 0.000000 0.000000 0.000000
25.978438 80.324800 317.946222 1.428442 -0.128819 4.770355 -1.412794 0.247114 -4.765702 -0.000000 0.000000 0.000000 -2.152552 0.938035 -0.370375 0.000000 0.000000 0.000000 -1.211920 4.060148 -0.339041 12.024576 13.339532 -3.131109 -1.596318 4.460319 11.799799 2.814379 -0.889648 -9.550232 0.000000 0.000000 0.000000 0.000000 0.000000 0.000000 -0.886157 -0.869319 -0.304779 0.826113 -0.519891 0.487278 -8.615888 6.763269 2.859510 5.594772 -5.210023 1.656620 0.000000 0.000000 0.000000 0.000000 0.000000 0.000000 -3.694849 0.472346 -5.152586 1.465922 0.422652 0.275680 41.457007 59.650580 -61.140297 0.000000 0.000000 0.000000 -3.111864 4.309625 -0.669686 1.803343 -5.839590 -3.890979 -0.174511 1.791446 -0.068424 0.000000 0.000000 0.000000
26.442484 80.405911 318.020802 1.718301 -0.386287 4.703567 -0.775650 -0.054701 -4.667860 -0.353975 -0.253088 0.011329 -2.665653 0.895497 -0.478422 0.000000 0.000000 0.000000 -1.602592 5.250805 -0.384825 14.057463 15.194209 -4.005777 6.315828 4.044036 13.685971 -4.653015 1.896498 -11.693670 0.000000 0.000000 0.000000 0.000000 0.000000 0.000000 -1.173437 -0.967136 -0.486695 0.563574 1.729928 0.446692 -7.652472 2.527600 6.605173 4.383804 -1.419051 -2.553339 0.000000 0.000000 0.000000 0.000000 0.000000 0.000000 -4.319845 0.758060 -5.125677 1.423166 0.659062 0.281360 45.480750 60.474581 -65.262625 0.000000 0.000000 0.000000 -2.890606 6.165092 -1.287602 0.848895 -6.802405 -3.761606 0.411810 1.222530 0.437853 0.000000 0.000000 0.000000
